<?xml version="1.0" encoding="UTF-8" standalone="no" ?>
<!DOCTYPE svg PUBLIC "-//W3C//DTD SVG 1.1//EN" "http://www.w3.org/Graphics/SVG/1.1/DTD/svg11.dtd">
<svg xmlns="http://www.w3.org/2000/svg" xmlns:xlink="http://www.w3.org/1999/xlink" version="1.1" width="318" height="90" viewBox="0 0 318 90" xml:space="preserve">
<desc>Created with Fabric.js 3.6.6</desc>
<defs>
</defs>
<g transform="matrix(1.71 0 0 1.71 181.2 57.4)"  >
<g style=""   >
		<g transform="matrix(0.62 0 0 0.62 -40.99 -5.88)"  >
<path style="stroke: none; stroke-width: 1; stroke-dasharray: none; stroke-linecap: butt; stroke-dashoffset: 0; stroke-linejoin: miter; stroke-miterlimit: 4; fill: rgb(255,252,247); fill-rule: nonzero; opacity: 1;"  transform=" translate(-104.75, 18)" d="M 1.75 -18 L 1.75 -18 Q 1.75 -21.25 2.9 -24.38 Q 4.05 -27.5 6.28 -30.08 Q 8.5 -32.65 11.7 -34.18 Q 14.9 -35.7 18.95 -35.7 L 18.95 -35.7 Q 23.75 -35.7 27.25 -33.52 Q 30.75 -31.35 32.45 -27.95 L 32.45 -27.95 L 28.05 -25 Q 27.05 -27.15 25.53 -28.4 Q 24 -29.65 22.23 -30.15 Q 20.45 -30.65 18.75 -30.65 L 18.75 -30.65 Q 15.95 -30.65 13.85 -29.53 Q 11.75 -28.4 10.33 -26.55 Q 8.9 -24.7 8.18 -22.4 Q 7.45 -20.1 7.45 -17.8 L 7.45 -17.8 Q 7.45 -15.25 8.3 -12.88 Q 9.15 -10.5 10.68 -8.68 Q 12.2 -6.85 14.3 -5.8 Q 16.4 -4.75 18.9 -4.75 L 18.9 -4.75 Q 20.6 -4.75 22.45 -5.35 Q 24.3 -5.95 25.88 -7.23 Q 27.45 -8.5 28.35 -10.6 L 28.35 -10.6 L 33 -7.95 Q 31.9 -5.3 29.58 -3.45 Q 27.25 -1.6 24.38 -0.65 Q 21.5 0.3 18.7 0.3 L 18.7 0.3 Q 14.95 0.3 11.85 -1.28 Q 8.75 -2.85 6.5 -5.48 Q 4.25 -8.1 3 -11.38 Q 1.75 -14.65 1.75 -18 Z M 60.95 -15.95 L 60.95 0 L 55.45 0 L 55.45 -14.65 Q 55.45 -18.2 54.15 -19.95 Q 52.85 -21.7 50.5 -21.7 L 50.5 -21.7 Q 49.05 -21.7 47.5 -20.9 Q 45.95 -20.1 44.75 -18.73 Q 43.55 -17.35 43 -15.55 L 43 -15.55 L 43 0 L 37.5 0 L 37.5 -36.5 L 43 -36.5 L 43 -20.9 Q 44.5 -23.55 47.1 -25.08 Q 49.7 -26.6 52.7 -26.6 L 52.7 -26.6 Q 55.15 -26.6 56.75 -25.75 Q 58.35 -24.9 59.27 -23.43 Q 60.2 -21.95 60.57 -20.03 Q 60.95 -18.1 60.95 -15.95 L 60.95 -15.95 Z M 65.45 -7.65 L 65.45 -7.65 Q 65.45 -10.15 66.87 -12.03 Q 68.3 -13.9 70.8 -14.93 Q 73.3 -15.95 76.6 -15.95 L 76.6 -15.95 Q 78.35 -15.95 80.17 -15.7 Q 82 -15.45 83.4 -14.9 L 83.4 -14.9 L 83.4 -16.55 Q 83.4 -19.3 81.75 -20.85 Q 80.1 -22.4 77 -22.4 L 77 -22.4 Q 74.8 -22.4 72.85 -21.63 Q 70.9 -20.85 68.7 -19.45 L 68.7 -19.45 L 66.85 -23.15 Q 69.45 -24.9 72.07 -25.75 Q 74.7 -26.6 77.6 -26.6 L 77.6 -26.6 Q 82.85 -26.6 85.87 -23.83 Q 88.9 -21.05 88.9 -15.95 L 88.9 -15.95 L 88.9 -6.2 Q 88.9 -5.25 89.22 -4.85 Q 89.55 -4.45 90.35 -4.4 L 90.35 -4.4 L 90.35 0 Q 89.6 0.15 89 0.2 Q 88.4 0.25 88 0.25 L 88 0.25 Q 86.25 0.25 85.35 -0.6 Q 84.45 -1.45 84.3 -2.6 L 84.3 -2.6 L 84.15 -4.1 Q 82.45 -1.9 79.8 -0.7 Q 77.15 0.5 74.45 0.5 L 74.45 0.5 Q 71.85 0.5 69.8 -0.58 Q 67.75 -1.65 66.6 -3.5 Q 65.45 -5.35 65.45 -7.65 Z M 82.1 -6.05 L 82.1 -6.05 Q 82.7 -6.7 83.05 -7.35 Q 83.4 -8 83.4 -8.5 L 83.4 -8.5 L 83.4 -11.5 Q 82 -12.05 80.45 -12.33 Q 78.9 -12.6 77.4 -12.6 L 77.4 -12.6 Q 74.4 -12.6 72.52 -11.4 Q 70.65 -10.2 70.65 -8.1 L 70.65 -8.1 Q 70.65 -6.95 71.27 -5.9 Q 71.9 -4.85 73.07 -4.2 Q 74.25 -3.55 76 -3.55 L 76 -3.55 Q 77.8 -3.55 79.45 -4.25 Q 81.1 -4.95 82.1 -6.05 Z M 108.74 -5.7 L 109.89 -1.35 Q 109.19 -1 108.14 -0.6 Q 107.09 -0.2 105.77 0.1 Q 104.44 0.4 103.04 0.4 L 103.04 0.4 Q 101.34 0.4 99.89 -0.2 Q 98.44 -0.8 97.57 -2.13 Q 96.69 -3.45 96.69 -5.55 L 96.69 -5.55 L 96.69 -21.9 L 93.24 -21.9 L 93.24 -26.15 L 96.69 -26.15 L 96.69 -34.75 L 102.19 -34.75 L 102.19 -26.15 L 107.89 -26.15 L 107.89 -21.9 L 102.19 -21.9 L 102.19 -7.3 Q 102.29 -5.95 103.07 -5.3 Q 103.84 -4.65 104.99 -4.65 L 104.99 -4.65 Q 106.14 -4.65 107.19 -5.05 Q 108.24 -5.45 108.74 -5.7 L 108.74 -5.7 Z M 137.89 -35.5 L 143.54 -35.5 L 143.54 0 L 137.89 0 L 137.89 -15.65 L 119.99 -15.65 L 119.99 0 L 114.39 0 L 114.39 -35.5 L 119.99 -35.5 L 119.99 -20.65 L 137.89 -20.65 L 137.89 -35.5 Z M 150.59 -10.15 L 150.59 -10.15 L 150.59 -26.15 L 156.09 -26.15 L 156.09 -11.25 Q 156.09 -7.75 157.36 -5.98 Q 158.64 -4.2 161.09 -4.2 L 161.09 -4.2 Q 162.64 -4.2 164.11 -4.85 Q 165.59 -5.5 166.81 -6.78 Q 168.04 -8.05 168.79 -9.85 L 168.79 -9.85 L 168.79 -26.15 L 174.29 -26.15 L 174.29 -6.2 Q 174.29 -5.25 174.64 -4.85 Q 174.99 -4.45 175.79 -4.4 L 175.79 -4.4 L 175.79 0 Q 174.94 0.15 174.39 0.2 Q 173.84 0.25 173.34 0.25 L 173.34 0.25 Q 171.84 0.25 170.84 -0.58 Q 169.84 -1.4 169.69 -2.7 L 169.69 -2.7 L 169.59 -5.3 Q 167.84 -2.45 165.04 -0.98 Q 162.24 0.5 158.89 0.5 L 158.89 0.5 Q 154.79 0.5 152.69 -2.2 Q 150.59 -4.9 150.59 -10.15 Z M 195.39 0.5 L 195.39 0.5 Q 192.39 0.5 189.96 -0.93 Q 187.54 -2.35 186.14 -4.75 L 186.14 -4.75 L 186.14 0 L 181.29 0 L 181.29 -36.5 L 186.79 -36.5 L 186.79 -21.2 Q 188.34 -23.7 190.66 -25.15 Q 192.99 -26.6 196.14 -26.6 L 196.14 -26.6 Q 198.74 -26.6 200.89 -25.5 Q 203.04 -24.4 204.56 -22.5 Q 206.09 -20.6 206.91 -18.15 Q 207.74 -15.7 207.74 -12.95 L 207.74 -12.95 Q 207.74 -10.2 206.81 -7.75 Q 205.89 -5.3 204.19 -3.45 Q 202.49 -1.6 200.26 -0.55 Q 198.04 0.5 195.39 0.5 Z M 193.94 -4.2 L 193.94 -4.2 Q 195.74 -4.2 197.24 -4.93 Q 198.74 -5.65 199.84 -6.85 Q 200.94 -8.05 201.51 -9.65 Q 202.09 -11.25 202.09 -12.95 L 202.09 -12.95 Q 202.09 -15.3 201.11 -17.35 Q 200.14 -19.4 198.39 -20.65 Q 196.64 -21.9 194.34 -21.9 L 194.34 -21.9 Q 192.69 -21.9 191.24 -21.13 Q 189.79 -20.35 188.66 -19.07 Q 187.54 -17.8 186.79 -16.25 L 186.79 -16.25 L 186.79 -9.35 Q 187.09 -8.2 187.84 -7.28 Q 188.59 -6.35 189.59 -5.68 Q 190.59 -5 191.74 -4.6 Q 192.89 -4.2 193.94 -4.2 Z" stroke-linecap="round" />
</g>
		<g transform="matrix(0.32 0 0 0.32 54.39 -6.19)"  >
<rect style="stroke: none; stroke-width: 1; stroke-dasharray: none; stroke-linecap: butt; stroke-dashoffset: 0; stroke-linejoin: miter; stroke-miterlimit: 4; fill: rgb(68,89,224); fill-rule: nonzero; opacity: 1;"  x="-74.195" y="-74.195" rx="0" ry="0" width="148.39" height="148.39" />
</g>
		<g transform="matrix(0.32 0 0 0.32 51.99 -8.59)"  >
<rect style="stroke: none; stroke-width: 1; stroke-dasharray: none; stroke-linecap: butt; stroke-dashoffset: 0; stroke-linejoin: miter; stroke-miterlimit: 4; fill: rgb(58,75,185); fill-rule: nonzero; opacity: 0.5;"  x="-74.195" y="-74.195" rx="0" ry="0" width="148.39" height="148.39" />
</g>
		<g transform="matrix(0.63 0 0 0.63 54.86 -5.74)"  >
<path style="stroke: none; stroke-width: 1; stroke-dasharray: none; stroke-linecap: butt; stroke-dashoffset: 0; stroke-linejoin: miter; stroke-miterlimit: 4; fill: rgb(255,255,255); fill-rule: nonzero; opacity: 1;"  transform=" translate(-54.02, -51.15)" d="M 48.183 72.318 v -9.152 H 36.865 c -8.175 0 -13.973 -6.427 -13.973 -14.182 v -8.942 C 22.893 32.147 28.9 26 36.865 26 h 34.231 c 7.895 0 14.042 6.218 14.042 14.042 v 8.942 c 0 7.755 -5.938 14.182 -14.042 14.182 h -5.03 L 54.959 75.112 c -0.769 0.838 -1.816 1.188 -2.795 1.188 c -0.419 0 -0.979 -0.141 -1.467 -0.28 C 49.3 75.322 48.183 73.994 48.183 72.318 z M 30.717 40.042 v 8.942 c 0 3.633 2.585 6.288 6.148 6.288 h 12.994 c 2.166 0 3.911 1.816 3.911 3.982 v 8.384 L 63.831 56.25 c 0.629 -0.699 1.747 -0.979 2.795 -0.979 h 4.471 c 3.493 0 6.148 -2.515 6.148 -6.288 v -8.942 c 0 -3.632 -2.725 -6.147 -6.148 -6.147 H 36.865 c -1.747 0 -3.215 0.559 -4.332 1.746 C 31.275 36.758 30.717 38.225 30.717 40.042 z" stroke-linecap="round" />
</g>
</g>
</g>
</svg>